<?xml version="1.0" standalone="no"?>
<!DOCTYPE svg PUBLIC "-//W3C//DTD SVG 20010904//EN"
 "http://www.w3.org/TR/2001/REC-SVG-20010904/DTD/svg10.dtd">
<svg version="1.0" xmlns="http://www.w3.org/2000/svg"
 width="700.000000pt" height="700.000000pt" viewBox="0 0 700.000000 700.000000"
 preserveAspectRatio="xMidYMid meet">
<metadata>
Created by potrace 1.14, written by Peter Selinger 2001-2017
</metadata>
<g transform="translate(0.000000,700.000000) scale(0.100000,-0.100000)"
fill="#000000" stroke="none">
<path d="M0 3500 l0 -3500 3500 0 3500 0 0 3500 0 3500 -3500 0 -3500 0 0
-3500z m6750 0 l0 -3250 -3250 0 -3250 0 0 3250 0 3250 3250 0 3250 0 0 -3250z"/>
<path d="M2250 3622 l0 -1877 250 0 250 0 1 45 c0 25 1 870 2 1877 l2 1833
-252 0 -253 0 0 -1878z"/>
<path d="M4402 5337 c-73 -89 -145 -176 -160 -193 -15 -18 -64 -76 -109 -130
-44 -55 -94 -115 -111 -134 -32 -38 -227 -273 -253 -305 -9 -11 -43 -51 -76
-90 -32 -38 -123 -149 -203 -245 -79 -96 -147 -177 -150 -180 -3 -3 -25 -30
-49 -60 -25 -30 -50 -59 -56 -65 -6 -5 -28 -32 -50 -60 -22 -27 -42 -52 -45
-55 -3 -3 -38 -44 -78 -92 -62 -74 -72 -90 -60 -101 18 -19 95 -108 208 -242
85 -100 179 -209 236 -275 49 -55 172 -199 214 -250 25 -29 52 -61 60 -70 8
-9 51 -58 95 -110 44 -52 82 -97 85 -100 3 -3 44 -50 90 -105 47 -55 87 -102
90 -105 3 -3 75 -86 159 -185 85 -99 165 -194 180 -210 14 -17 65 -75 112
-130 l87 -100 308 0 c198 0 310 4 311 10 1 9 -56 76 -157 185 -14 15 -53 59
-87 97 -34 38 -74 83 -90 100 -15 17 -56 61 -89 99 -34 38 -72 80 -85 95 -13
14 -58 63 -99 108 -41 46 -80 89 -85 95 -6 6 -136 151 -290 321 -153 171 -291
324 -306 340 -16 17 -36 39 -46 51 -10 12 -52 58 -93 104 -41 45 -84 92 -95
104 -11 13 -56 62 -100 111 -130 143 -125 136 -112 155 7 10 50 59 97 111 47
51 109 120 139 154 30 33 61 67 70 76 9 9 41 45 71 80 30 34 66 75 80 89 14
15 59 64 100 111 41 46 79 89 85 95 5 6 44 48 85 94 41 46 102 114 135 150 33
36 78 86 100 111 23 24 101 112 175 194 74 83 137 152 140 155 3 3 43 48 90
100 47 52 101 112 120 134 19 21 40 44 45 50 6 7 23 26 39 44 l30 32 -285 -1
-284 0 -133 -162z"/>
</g>
</svg>
